<svg width="343" height="319" viewBox="0 0 343 319" fill="none" xmlns="http://www.w3.org/2000/svg">
<path d="M17.6989 271V67.3636H98.0398C113.419 67.3636 126.544 70.1146 137.415 75.6165C148.352 81.0521 156.671 88.7746 162.372 98.7841C168.139 108.727 171.023 120.427 171.023 133.884C171.023 147.406 168.106 159.04 162.273 168.784C156.439 178.462 147.988 185.886 136.918 191.057C125.914 196.227 112.59 198.812 96.946 198.812H43.1534V164.21H89.9858C98.2055 164.21 105.033 163.083 110.469 160.83C115.904 158.576 119.948 155.195 122.599 150.688C125.317 146.18 126.676 140.579 126.676 133.884C126.676 127.122 125.317 121.421 122.599 116.781C119.948 112.141 115.871 108.628 110.369 106.241C104.934 103.789 98.0729 102.562 89.7869 102.562H60.7528V271H17.6989ZM127.67 178.33L178.281 271H130.753L81.2358 178.33H127.67ZM284.689 118.273V150.091H192.715V118.273H284.689ZM213.595 81.6818H255.953V224.068C255.953 227.979 256.55 231.028 257.743 233.216C258.936 235.337 260.594 236.829 262.715 237.69C264.902 238.552 267.421 238.983 270.272 238.983C272.26 238.983 274.249 238.817 276.238 238.486C278.226 238.088 279.751 237.79 280.811 237.591L287.473 269.111C285.352 269.774 282.369 270.536 278.524 271.398C274.68 272.326 270.006 272.889 264.505 273.088C254.296 273.486 245.347 272.127 237.658 269.011C230.035 265.896 224.102 261.057 219.86 254.494C215.617 247.932 213.529 239.646 213.595 229.636V81.6818Z" fill="#CE5FF8"/>
<rect x="319" y="228" width="48" height="48" fill="#CE5FF8"/>
</svg>
